<svg height='100px' width='100px'  fill="#3a3a3a" xmlns="http://www.w3.org/2000/svg" xmlns:xlink="http://www.w3.org/1999/xlink" version="1.1" x="0px" y="0px" viewBox="0 0 91 91" style="enable-background:new 0 0 91 91;" xml:space="preserve"><g><circle cx="58.6" cy="46.4" r="2"></circle><circle cx="53.3" cy="52" r="2"></circle><circle cx="55.5" cy="58" r="2"></circle><circle cx="61" cy="54.3" r="2"></circle><path d="M55.4,36.4c-0.1-1-0.7-1.7-1.4-2c-7.2-6.6-10.5-15.7-15.1-24.1c-1.7-3.2-4-7.8-7.9-8.5c-2.5-0.5-5.4-0.4-7.9-0.4   s-3.5,1.3-5.2,3c-1.8,1.9-3.7,3.8-5.8,5.4c-1.8,1.3-3,2.3-4,4.3c-1.8,3.7-1.3,8,0.7,11.6c2.5,4.4,6.7,5.9,11,7.7   c3,1.2,5.8,2.8,8.6,4.2c2.7,1.3,6.1,2.5,8.3,4.6c1.8,1.7,2.9,4.2,5.4,5.2c2.1,0.8,4.5,0.3,6.5-0.6C53.3,44.9,55.7,41.3,55.4,36.4z    M44.7,43.3c-1.5-0.2-2-1.5-2.9-2.5c-0.3-0.4-0.6-0.7-1-1c1.9-2,3.9-3.9,5.5-6.1c1-1.3-1-2.5-2.1-1.6c-2.1,1.8-4.2,3.6-6.2,5.5   c-2.9-1.9-6.3-3-9.4-4.4c-2.5-1.1-5-2.3-7.6-3.4s-5.5-1.9-7.4-4.1c-1.8-2.1-3.2-5.4-2.5-8.2c0.5-2.2,1.8-3.2,3.5-4.4   c2-1.5,3.7-3.3,5.3-5.2c0.7-0.9,1.5-2.4,2.5-3.1c1.3-0.9,3.1-0.4,4.6-0.4s3.5-0.2,4.8,0.6c1.2,0.7,2.2,2.2,3,3.3   c1.3,1.8,2.5,3.6,3.6,5.6C42.5,21.1,44.9,30,51,36c0,0.1,0,0.3,0,0.4c0.1,2.6-0.4,4.1-2.7,5.6C47.4,42.6,45.8,43.5,44.7,43.3z"></path><path d="M30.5,9.4c-0.2-1.1-1.4-2.1-2.6-1.3c-4.6,3.2-8.9,7.4-12,12.1c-0.5,0.8-0.2,2.1,0.7,2.5c4.3,2.1,8.6,4.4,12.8,6.7   c0.7,0.4,1.7,0.3,2.3-0.3c2-2,4.7-4.1,6.1-6.6c0.3-0.6,0.3-1.3,0-1.9C35.4,16.8,33.1,12.9,30.5,9.4z M29.9,25.4   c-3.2-1.7-6.5-3.4-9.8-5c2.3-3.1,5.2-5.9,8.2-8.2c1.7,3.2,3.6,6.2,5.5,9.3C32.9,22.6,31.2,24.2,29.9,25.4z"></path><path d="M78.1,16.2c-0.4-0.6-1.2-0.8-1.8-0.2c-5.1,4.9-9.8,10.6-14.2,16.1c-1.2,0.4-1.4,2.5,0.1,2.8c5.2,0.9,11.9,2,16.2-2.3   C82.6,28.1,81.4,20.7,78.1,16.2z M64.4,32.4c1.6-1.5,3-3.1,4.5-4.7c0.1,0.6,0.2,1.2,0.2,1.8c0.1,1.1,0.1,2.5,0.4,3.6   C67.8,33.1,66,32.8,64.4,32.4z M76.9,18.6c0.6,1.1,1.1,2.5,1.5,3.8c-2,0.1-4,0.4-5.9,1.1C73.9,21.8,75.4,20.2,76.9,18.6z    M75.8,31.5c-1.2,0.8-2.4,1.2-3.6,1.5c0-1.2-0.4-2.6-0.6-3.7c-0.2-1-0.3-2-0.5-3c1.8,1.6,4.1,2.8,6.2,4   C76.8,30.7,76.3,31.1,75.8,31.5z M78,28.8c-1.8-1.4-3.8-2.8-5.9-3.8c2.2-0.3,4.4-0.4,6.6-0.6C78.8,26,78.6,27.5,78,28.8z"></path><path d="M63.6,66.5c0.5,1.8,2.4,3,4.3,2.4c2.1-0.6,2.7-2.8,2.6-4.8c-0.2-2.4-2.4-2.7-4.5-2.4C63.1,62.2,63.3,65.3,63.6,66.5z    M68.3,64.6c0.4,0.6,0.3,1.4,0.2,1.7c-0.1,0.5-0.8,1-1.4,1.1c-1.2,0.2-2.4-1-2.2-2.1C65.2,63.8,67.6,63.4,68.3,64.6z"></path><path d="M41.7,57.3c-1.5-0.6-3-0.5-4.6-0.4c-2.9,0.3-5.3,0.1-7.7-1.9c-1.1-0.9-3-0.1-2.5,1.5c1.4,4.5,3.7,9,8,11.5   c3.4,2,8.9,2.9,11.7-0.4c0.1-0.1,0.1-0.2,0.2-0.3c0.9-0.1,1.7-0.7,1.3-1.7C46.7,62.3,45.2,58.7,41.7,57.3z M40.1,67   c-1.9-0.2-3.7-1-5.1-2.3c-1.7-1.4-2.9-3.3-3.8-5.3c1.2,0.4,2.5,0.7,3.9,0.6c2,0,4-0.9,6,0.1c1.1,0.5,1.8,1.4,2.5,2.4   c-1.9-0.7-3.9-1-6.1-1c-2.1,0-1.8,3.3,0.4,2.9c2.6-0.6,5.1,0.4,7.1,1.9C43.3,66.6,41.8,67.1,40.1,67z"></path><path d="M87.8,72c-3.2-0.4-6.4-0.4-9.6-0.6c-15-0.7-30.1-0.4-45.1-0.1c-2.3,0.1-2.9,2.6-1.8,4c-0.4,2.6,1.4,6.1,4.1,5.9   c2.1-0.2,2.8-4.1,4.8-0.5c0.7,1.2,0.6,2.7,2,3.4c1,0.6,2.4,0.5,3.3-0.2c1.3-1,0.8-2.6,1.6-3.7c0.6-0.7,3.1-0.3,4.2-0.8   c1.6-0.8,1.6-2.2,2.2-3.6c4.9,0,9.8,0,14.8,0c4.4,0,8.9,0,13.3,0c1.4,0,2.7,0,4.1,0c0.1,0,0.3,0,0.4,0c0,0.3-0.1,0.6-0.1,0.7   c-0.5,2-1,4.3-2.1,6c-2.2,3.3-6.4,3-9.9,3c-7.2,0-14.4,0-21.6,0c-3.8,0-7.5,0-11.3,0c-3,0-5.9,0.2-8.1-2.1   c-2.7-2.8-3.2-6.8-3.7-10.4c-0.2-2.1-3-2.1-3.2,0C26,73.7,26,74.5,26,75.2c-1.2,0-2.5,0.1-3.7,0.1c-0.2-0.8-0.8-1.5-1.8-2.1   C16.4,70.9,5.3,72.6,3.8,73c-3.3,1-3.7,5.4-0.4,7.5C5.3,82.1,7.6,82,10,82c2.6,0,5.4,0,7.9-0.5c1.4-0.3,2.7-1.3,3.6-2.5   c1.6,0.1,3.2,0.3,4.8,0.2c0.7,3.8,2.6,7.3,6.1,9.3c3.9,2.3,9.1,1.5,13.5,1.5c9,0,18,0.2,27.1,0.2c3.8,0,7.9,0.2,11.2-1.9   c3.9-2.4,5.3-6.8,6.1-11.1C90.6,74.6,90.9,72.4,87.8,72z M45.3,78.4c-0.5,0.7-0.5,1.6-0.6,2.4s-0.1,2.8-1.9,1.9   c-0.5-0.3-0.8-1.7-1-2.3c-0.6-1.7-1.4-3.7-3.7-3.3c-1.1,0.2-1.4,1.1-2.2,1.6c-1.4,0.7-2-0.9-2.3-2.5C39.2,76.1,45,76,50.8,76   C51.1,78,46.2,77.2,45.3,78.4z M16.4,78.4c-2.2,0.4-4.6,0.4-6.8,0.4c-1.3,0-3.3,0.3-4.5-0.5s-0.8-1.9-0.2-2.2   c0.9-0.7,12.6-1.5,13.4-0.1C19.1,77.4,17.8,78.2,16.4,78.4z"></path><path d="M78.8,52.7c2.1-3.5,1.4-7.5,2.1-11.4c0.2-1-0.7-2.5-2-2c-5.5,2.3-13.7,6.6-11.4,14c0.1,0.3,0.3,0.4,0.6,0.5   c-0.2,0.5-0.3,1.1-0.4,1.6c-0.3,2.7,2.1,3,4.1,2.5C74.7,57.2,77.3,55.2,78.8,52.7z M72.9,47.2c-1.3,1.2-2.9,3-4,4.8   c0.3-4.9,3.9-7.8,8.4-9.1c-0.2,2.2-0.1,4.5-0.9,6.5c-0.8,2.2-2.7,4.1-5,4.8c0.4-0.7,0.9-1.6,1-1.8c0.7-1.2,1.6-2.2,2.7-3.2   C76.6,48.1,74.4,45.9,72.9,47.2z"></path></g></svg>